<svg version="1.1" xmlns="http://www.w3.org/2000/svg" xmlns:xlink="http://www.w3.org/1999/xlink" width="1148" height="718"><defs><clipPath id="PLHTwDTJTVvd"><path fill="none" stroke="none" d=" M 0 0 L 1148 0 L 1148 718 L 0 718 L 0 0 Z"/></clipPath></defs><g transform="scale(1,1)" clip-path="url(#PLHTwDTJTVvd)"><g><rect fill="rgb(255,255,255)" stroke="none" x="0" y="0" width="1148" height="718" fill-opacity="1"/><path fill="rgb(0,0,0)" stroke="none" paint-order="stroke fill markers" fill-rule="evenodd" d=" M 103.39579595898289 424.65278063312724 L 55.34065319369688 507.8867294675802 L 151.45093872426895 507.88672946758015 Z" fill-opacity="1"/><path fill="none" stroke="rgb(0,0,0)" paint-order="fill stroke markers" d=" M 103.39579595898289 424.65278063312724 L 55.34065319369688 507.8867294675802 L 151.45093872426895 507.88672946758015 Z" stroke-opacity="0.6980392156862745" stroke-linecap="round" stroke-linejoin="round" stroke-miterlimit="10" stroke-width="2.5"/><path fill="rgb(0,0,0)" stroke="none" paint-order="stroke fill markers" fill-rule="evenodd" d=" M 127.42336734162592 466.2697550503537 L 175.47851010691232 466.2697550503536 L 151.45093872426907 424.65278063312684 Z" fill-opacity="1"/><path fill="none" stroke="rgb(0,0,0)" paint-order="fill stroke markers" d=" M 127.42336734162592 466.2697550503537 L 175.47851010691232 466.2697550503536 L 151.45093872426907 424.65278063312684 Z" stroke-opacity="0.6980392156862745" stroke-linecap="round" stroke-linejoin="round" stroke-miterlimit="10" stroke-width="2.5"/><path fill="rgb(0,0,0)" stroke="none" paint-order="stroke fill markers" fill-rule="evenodd" d=" M 169.47161726125165 435.057024237433 L 181.4854029525738 435.05702423743287 L 175.47851010691255 424.6527806331259 Z" fill-opacity="1"/><path fill="none" stroke="rgb(0,0,0)" paint-order="fill stroke markers" d=" M 169.47161726125165 435.057024237433 L 181.4854029525738 435.05702423743287 L 175.47851010691255 424.6527806331259 Z" stroke-opacity="0.6980392156862745" stroke-linecap="round" stroke-linejoin="round" stroke-miterlimit="10" stroke-width="2.5"/><path fill="rgb(0,0,0)" stroke="none" paint-order="stroke fill markers" fill-rule="evenodd" d=" M 169.47161726125165 435.057024237433 L 163.46472441559075 445.4612678417402 L 175.47851010691278 445.4612678417401 Z" fill-opacity="1"/><path fill="none" stroke="rgb(0,0,0)" paint-order="fill stroke markers" d=" M 169.47161726125165 435.057024237433 L 163.46472441559075 445.4612678417402 L 175.47851010691278 445.4612678417401 Z" stroke-opacity="0.6980392156862745" stroke-linecap="round" stroke-linejoin="round" stroke-miterlimit="10" stroke-width="2.5"/><path fill="rgb(0,0,0)" stroke="none" paint-order="stroke fill markers" fill-rule="evenodd" d=" M 175.47851010691278 445.4612678417401 L 187.49229579823492 445.46126784174 L 181.4854029525738 435.05702423743287 Z" fill-opacity="1"/><path fill="none" stroke="rgb(0,0,0)" paint-order="fill stroke markers" d=" M 175.47851010691278 445.4612678417401 L 187.49229579823492 445.46126784174 L 181.4854029525738 435.05702423743287 Z" stroke-opacity="0.6980392156862745" stroke-linecap="round" stroke-linejoin="round" stroke-miterlimit="10" stroke-width="2.5"/><path fill="rgb(0,0,0)" stroke="none" paint-order="stroke fill markers" fill-rule="evenodd" d=" M 31.313081811053507 466.2697550503536 L 79.36822457633986 466.2697550503537 L 55.34065319369677 424.6527806331269 Z" fill-opacity="1"/><path fill="none" stroke="rgb(0,0,0)" paint-order="fill stroke markers" d=" M 31.313081811053507 466.2697550503536 L 79.36822457633986 466.2697550503537 L 55.34065319369677 424.6527806331269 Z" stroke-opacity="0.6980392156862745" stroke-linecap="round" stroke-linejoin="round" stroke-miterlimit="10" stroke-width="2.5"/><path fill="rgb(0,0,0)" stroke="none" paint-order="stroke fill markers" fill-rule="evenodd" d=" M 19.29929611973165 445.4612678417403 L 25.30618896539255 435.05702423743344 L 37.31997465671424 435.05702423743344 L 31.313081811053394 445.46126784174027 Z" fill-opacity="1"/><path fill="none" stroke="rgb(0,0,0)" paint-order="fill stroke markers" d=" M 19.29929611973165 445.4612678417403 L 25.30618896539255 435.05702423743344 L 37.31997465671424 435.05702423743344 L 31.313081811053394 445.46126784174027 Z" stroke-opacity="0.6980392156862745" stroke-linecap="round" stroke-linejoin="round" stroke-miterlimit="10" stroke-width="2.5"/><path fill="rgb(0,0,0)" stroke="none" paint-order="stroke fill markers" fill-rule="evenodd" d=" M 79.36822457634003 424.6527806331273 L 73.36133173067918 435.0570242374338 L 85.37511742200064 435.0570242374339 Z" fill-opacity="1"/><path fill="none" stroke="rgb(0,0,0)" paint-order="fill stroke markers" d=" M 79.36822457634003 424.6527806331273 L 73.36133173067918 435.0570242374338 L 85.37511742200064 435.0570242374339 Z" stroke-opacity="0.6980392156862745" stroke-linecap="round" stroke-linejoin="round" stroke-miterlimit="10" stroke-width="2.5"/><path fill="rgb(0,0,0)" stroke="none" paint-order="stroke fill markers" fill-rule="evenodd" d=" M 73.36133173067918 435.0570242374338 L 67.3544388850184 445.4612678417403 L 79.3682245763398 445.46126784174044 Z" fill-opacity="1"/><path fill="none" stroke="rgb(0,0,0)" paint-order="fill stroke markers" d=" M 73.36133173067918 435.0570242374338 L 67.3544388850184 445.4612678417403 L 79.3682245763398 445.46126784174044 Z" stroke-opacity="0.6980392156862745" stroke-linecap="round" stroke-linejoin="round" stroke-miterlimit="10" stroke-width="2.5"/><path fill="rgb(0,0,0)" stroke="none" paint-order="stroke fill markers" fill-rule="evenodd" d=" M 85.37511742200064 435.0570242374339 L 79.3682245763398 445.46126784174044 L 91.3820102676612 445.4612678417405 Z" fill-opacity="1"/><path fill="none" stroke="rgb(0,0,0)" paint-order="fill stroke markers" d=" M 85.37511742200064 435.0570242374339 L 79.3682245763398 445.46126784174044 L 91.3820102676612 445.4612678417405 Z" stroke-opacity="0.6980392156862745" stroke-linecap="round" stroke-linejoin="round" stroke-miterlimit="10" stroke-width="2.5"/><path fill="rgb(0,0,0)" stroke="none" paint-order="stroke fill markers" fill-rule="evenodd" d=" M 121.41647449596485 435.05702423743344 L 115.409581650304 445.4612678417402 L 139.4371530329475 445.46126784174027 L 133.4302601872867 435.05702423743344 Z" fill-opacity="1"/><path fill="none" stroke="rgb(0,0,0)" paint-order="fill stroke markers" d=" M 121.41647449596485 435.05702423743344 L 115.409581650304 445.4612678417402 L 139.4371530329475 445.46126784174027 L 133.4302601872867 435.05702423743344 Z" stroke-opacity="0.6980392156862745" stroke-linecap="round" stroke-linejoin="round" stroke-miterlimit="10" stroke-width="2.5"/><path fill="rgb(0,0,0)" stroke="none" paint-order="stroke fill markers" fill-rule="evenodd" d=" M 16.295849696900575 429.85490243527954 L 13.29240327406984 435.0570242374334 L 25.30618896539255 435.05702423743344 L 22.302742542561873 429.85490243527966 Z" fill-opacity="1"/><path fill="none" stroke="rgb(0,0,0)" paint-order="fill stroke markers" d=" M 16.295849696900575 429.85490243527954 L 13.29240327406984 435.0570242374334 L 25.30618896539255 435.05702423743344 L 22.302742542561873 429.85490243527966 Z" stroke-opacity="0.6980392156862745" stroke-linecap="round" stroke-linejoin="round" stroke-miterlimit="10" stroke-width="2.5"/><path fill="rgb(0,0,0)" stroke="none" paint-order="stroke fill markers" fill-rule="evenodd" d=" M 40.32342107954463 429.8549024352801 L 37.31997465671424 435.05702423743344 L 43.32686750237491 435.0570242374334 L 46.33031392520519 429.8549024352801 Z" fill-opacity="1"/><path fill="none" stroke="rgb(0,0,0)" paint-order="fill stroke markers" d=" M 40.32342107954463 429.8549024352801 L 37.31997465671424 435.05702423743344 L 43.32686750237491 435.0570242374334 L 46.33031392520519 429.8549024352801 Z" stroke-opacity="0.6980392156862745" stroke-linecap="round" stroke-linejoin="round" stroke-miterlimit="10" stroke-width="2.5"/><path fill="rgb(0,0,0)" stroke="none" paint-order="stroke fill markers" fill-rule="evenodd" d=" M 61.34754603936028 435.05702423743384 L 67.35443888501976 424.6527806331294 L 70.35788530784941 429.8549024352816 L 64.35099246219005 429.8549024352816 L 67.35443888501976 435.05702423743384 Z" fill-opacity="1"/><path fill="none" stroke="rgb(0,0,0)" paint-order="fill stroke markers" d=" M 61.34754603936028 435.05702423743384 L 67.35443888501976 424.6527806331294 L 70.35788530784941 429.8549024352816 L 64.35099246219005 429.8549024352816 L 67.35443888501976 435.05702423743384 Z" stroke-opacity="0.6980392156862745" stroke-linecap="round" stroke-linejoin="round" stroke-miterlimit="10" stroke-width="2.5"/><path fill="rgb(0,0,0)" stroke="none" paint-order="stroke fill markers" fill-rule="evenodd" d=" M 91.3820102676629 424.65278063312496 L 88.37856384483177 429.8549024352794 L 94.38545669049398 429.85490243527954 Z" fill-opacity="1"/><path fill="none" stroke="rgb(0,0,0)" paint-order="fill stroke markers" d=" M 91.3820102676629 424.65278063312496 L 88.37856384483177 429.8549024352794 L 94.38545669049398 429.85490243527954 Z" stroke-opacity="0.6980392156862745" stroke-linecap="round" stroke-linejoin="round" stroke-miterlimit="10" stroke-width="2.5"/><path fill="rgb(0,0,0)" stroke="none" paint-order="stroke fill markers" fill-rule="evenodd" d=" M 88.37856384483177 429.8549024352794 L 85.37511742200064 435.0570242374339 L 91.38201026766274 435.057024237434 Z" fill-opacity="1"/><path fill="none" stroke="rgb(0,0,0)" paint-order="fill stroke markers" d=" M 88.37856384483177 429.8549024352794 L 85.37511742200064 435.0570242374339 L 91.38201026766274 435.057024237434 Z" stroke-opacity="0.6980392156862745" stroke-linecap="round" stroke-linejoin="round" stroke-miterlimit="10" stroke-width="2.5"/><path fill="rgb(0,0,0)" stroke="none" paint-order="stroke fill markers" fill-rule="evenodd" d=" M 94.38545669049398 429.85490243527954 L 91.38201026766274 435.057024237434 L 97.38890311332494 435.0570242374341 Z" fill-opacity="1"/><path fill="none" stroke="rgb(0,0,0)" paint-order="fill stroke markers" d=" M 94.38545669049398 429.85490243527954 L 91.38201026766274 435.057024237434 L 97.38890311332494 435.0570242374341 Z" stroke-opacity="0.6980392156862745" stroke-linecap="round" stroke-linejoin="round" stroke-miterlimit="10" stroke-width="2.5"/><path fill="rgb(0,0,0)" stroke="none" paint-order="stroke fill markers" fill-rule="evenodd" d=" M 112.40613522747282 429.85490243527977 L 109.40268880464231 435.05702423743355 L 121.41647449596485 435.05702423743344 L 118.41302807313411 429.85490243527966 Z" fill-opacity="1"/><path fill="none" stroke="rgb(0,0,0)" paint-order="fill stroke markers" d=" M 112.40613522747282 429.85490243527977 L 109.40268880464231 435.05702423743355 L 121.41647449596485 435.05702423743344 L 118.41302807313411 429.85490243527966 Z" stroke-opacity="0.6980392156862745" stroke-linecap="round" stroke-linejoin="round" stroke-miterlimit="10" stroke-width="2.5"/><path fill="rgb(0,0,0)" stroke="none" paint-order="stroke fill markers" fill-rule="evenodd" d=" M 139.43715303294874 424.65278063312485 L 133.4302601872867 435.05702423743344 L 145.44404587861055 435.05702423743355 Z" fill-opacity="1"/><path fill="none" stroke="rgb(0,0,0)" paint-order="fill stroke markers" d=" M 139.43715303294874 424.65278063312485 L 133.4302601872867 435.05702423743344 L 145.44404587861055 435.05702423743355 Z" stroke-opacity="0.6980392156862745" stroke-linecap="round" stroke-linejoin="round" stroke-miterlimit="10" stroke-width="2.5"/><path fill="rgb(0,0,0)" stroke="none" paint-order="stroke fill markers" fill-rule="evenodd" d=" M 160.46127799275865 429.85490243527914 L 157.45783156992803 435.0570242374335 L 169.47161726125165 435.057024237433 L 166.46817083842046 429.8549024352789 Z" fill-opacity="1"/><path fill="none" stroke="rgb(0,0,0)" paint-order="fill stroke markers" d=" M 160.46127799275865 429.85490243527914 L 157.45783156992803 435.0570242374335 L 169.47161726125165 435.057024237433 L 166.46817083842046 429.8549024352789 Z" stroke-opacity="0.6980392156862745" stroke-linecap="round" stroke-linejoin="round" stroke-miterlimit="10" stroke-width="2.5"/><path fill="rgb(0,0,0)" stroke="none" paint-order="stroke fill markers" fill-rule="evenodd" d=" M 187.49229579823583 424.6527806331246 L 181.4854029525738 435.05702423743287 L 193.4991886438974 435.0570242374332 Z" fill-opacity="1"/><path fill="none" stroke="rgb(0,0,0)" paint-order="fill stroke markers" d=" M 187.49229579823583 424.6527806331246 L 181.4854029525738 435.05702423743287 L 193.4991886438974 435.0570242374332 Z" stroke-opacity="0.6980392156862745" stroke-linecap="round" stroke-linejoin="round" stroke-miterlimit="10" stroke-width="2.5"/><path fill="rgb(0,0,0)" stroke="none" paint-order="stroke fill markers" fill-rule="evenodd" d=" M -1.7248288400805905 429.85490243528005 L -4.728275262910756 435.05702423743344 L 1.2786175827499733 435.0570242374332 Z" fill-opacity="1"/><path fill="none" stroke="rgb(0,0,0)" paint-order="fill stroke markers" d=" M -1.7248288400805905 429.85490243528005 L -4.728275262910756 435.05702423743344 L 1.2786175827499733 435.0570242374332 Z" stroke-opacity="0.6980392156862745" stroke-linecap="round" stroke-linejoin="round" stroke-miterlimit="10" stroke-width="2.5"/><path fill="rgb(0,0,0)" stroke="none" paint-order="stroke fill markers" fill-rule="evenodd" d=" M 247.56122425484108 424.65278063312724 L 235.5474385635195 445.46126784174044 L 247.56122425484108 466.2697550503537 L 271.588795637484 466.2697550503537 Z" fill-opacity="1"/><path fill="none" stroke="rgb(0,0,0)" paint-order="fill stroke markers" d=" M 247.56122425484108 424.65278063312724 L 235.5474385635195 445.46126784174044 L 247.56122425484108 466.2697550503537 L 271.588795637484 466.2697550503537 Z" stroke-opacity="0.6980392156862745" stroke-linecap="round" stroke-linejoin="round" stroke-miterlimit="10" stroke-width="2.5"/><path fill="rgb(0,0,0)" stroke="none" paint-order="stroke fill markers" fill-rule="evenodd" d=" M 223.53365287219827 424.652780633127 L 217.52676002653737 435.05702423743355 L 229.54054571785895 435.0570242374338 Z" fill-opacity="1"/><path fill="none" stroke="rgb(0,0,0)" paint-order="fill stroke markers" d=" M 223.53365287219827 424.652780633127 L 217.52676002653737 435.05702423743355 L 229.54054571785895 435.0570242374338 Z" stroke-opacity="0.6980392156862745" stroke-linecap="round" stroke-linejoin="round" stroke-miterlimit="10" stroke-width="2.5"/><path fill="rgb(0,0,0)" stroke="none" paint-order="stroke fill markers" fill-rule="evenodd" d=" M 217.52676002653737 435.05702423743355 L 211.51986718087647 445.4612678417401 L 223.53365287219805 445.46126784174027 Z" fill-opacity="1"/><path fill="none" stroke="rgb(0,0,0)" paint-order="fill stroke markers" d=" M 217.52676002653737 435.05702423743355 L 211.51986718087647 445.4612678417401 L 223.53365287219805 445.46126784174027 Z" stroke-opacity="0.6980392156862745" stroke-linecap="round" stroke-linejoin="round" stroke-miterlimit="10" stroke-width="2.5"/><path fill="rgb(0,0,0)" stroke="none" paint-order="stroke fill markers" fill-rule="evenodd" d=" M 223.53365287219805 445.46126784174027 L 235.5474385635195 445.46126784174044 L 229.54054571785895 435.0570242374338 Z" fill-opacity="1"/><path fill="none" stroke="rgb(0,0,0)" paint-order="fill stroke markers" d=" M 223.53365287219805 445.46126784174027 L 235.5474385635195 445.46126784174044 L 229.54054571785895 435.0570242374338 Z" stroke-opacity="0.6980392156862745" stroke-linecap="round" stroke-linejoin="round" stroke-miterlimit="10" stroke-width="2.5"/><path fill="rgb(0,0,0)" stroke="none" paint-order="stroke fill markers" fill-rule="evenodd" d=" M 319.64393840277006 466.26975505035375 L 367.6990811680561 466.26975505035375 L 343.6715097854131 424.65278063312724 Z" fill-opacity="1"/><path fill="none" stroke="rgb(0,0,0)" paint-order="fill stroke markers" d=" M 319.64393840277006 466.26975505035375 L 367.6990811680561 466.26975505035375 L 343.6715097854131 424.65278063312724 Z" stroke-opacity="0.6980392156862745" stroke-linecap="round" stroke-linejoin="round" stroke-miterlimit="10" stroke-width="2.5"/><path fill="rgb(0,0,0)" stroke="none" paint-order="stroke fill markers" fill-rule="evenodd" d=" M 259.57500994616254 445.46126784174044 L 283.60258132880557 445.4612678417402 L 271.58879563748377 424.6527806331271 Z" fill-opacity="1"/><path fill="none" stroke="rgb(0,0,0)" paint-order="fill stroke markers" d=" M 259.57500994616254 445.46126784174044 L 283.60258132880557 445.4612678417402 L 271.58879563748377 424.6527806331271 Z" stroke-opacity="0.6980392156862745" stroke-linecap="round" stroke-linejoin="round" stroke-miterlimit="10" stroke-width="2.5"/><path fill="rgb(0,0,0)" stroke="none" paint-order="stroke fill markers" fill-rule="evenodd" d=" M 307.63015271144724 445.46126784174027 L 331.65772409409163 445.4612678417405 L 319.6439384027697 424.652780633126 Z" fill-opacity="1"/><path fill="none" stroke="rgb(0,0,0)" paint-order="fill stroke markers" d=" M 307.63015271144724 445.46126784174027 L 331.65772409409163 445.4612678417405 L 319.6439384027697 424.652780633126 Z" stroke-opacity="0.6980392156862745" stroke-linecap="round" stroke-linejoin="round" stroke-miterlimit="10" stroke-width="2.5"/><path fill="rgb(0,0,0)" stroke="none" paint-order="stroke fill markers" fill-rule="evenodd" d=" M 355.68529547673467 445.4612678417405 L 367.6990811680568 445.4612678417404 L 373.7059740137178 435.0570242374331 L 367.6990811680567 424.652780633126 Z" fill-opacity="1"/><path fill="none" stroke="rgb(0,0,0)" paint-order="fill stroke markers" d=" M 355.68529547673467 445.4612678417405 L 367.6990811680568 445.4612678417404 L 373.7059740137178 435.0570242374331 L 367.6990811680567 424.652780633126 Z" stroke-opacity="0.6980392156862745" stroke-linecap="round" stroke-linejoin="round" stroke-miterlimit="10" stroke-width="2.5"/><path fill="rgb(0,0,0)" stroke="none" paint-order="stroke fill markers" fill-rule="evenodd" d=" M 211.51986718087534 424.6527806331246 L 205.5129743352132 435.0570242374336 L 217.52676002653737 435.05702423743355 Z" fill-opacity="1"/><path fill="none" stroke="rgb(0,0,0)" paint-order="fill stroke markers" d=" M 211.51986718087534 424.6527806331246 L 205.5129743352132 435.0570242374336 L 217.52676002653737 435.05702423743355 Z" stroke-opacity="0.6980392156862745" stroke-linecap="round" stroke-linejoin="round" stroke-miterlimit="10" stroke-width="2.5"/><path fill="rgb(0,0,0)" stroke="none" paint-order="stroke fill markers" fill-rule="evenodd" d=" M 235.5474385635186 424.6527806331296 L 229.54054571785895 435.0570242374338 L 241.55433140917768 435.05702423743406 Z" fill-opacity="1"/><path fill="none" stroke="rgb(0,0,0)" paint-order="fill stroke markers" d=" M 235.5474385635186 424.6527806331296 L 229.54054571785895 435.0570242374338 L 241.55433140917768 435.05702423743406 Z" stroke-opacity="0.6980392156862745" stroke-linecap="round" stroke-linejoin="round" stroke-miterlimit="10" stroke-width="2.5"/><path fill="rgb(0,0,0)" stroke="none" paint-order="stroke fill markers" fill-rule="evenodd" d=" M 259.575009946163 424.65278063312996 L 253.56811710050437 435.0570242374347 L 259.5750099461638 435.05702423743423 L 256.57156352333374 429.85490243528227 L 262.57845636899305 429.8549024352819 Z" fill-opacity="1"/><path fill="none" stroke="rgb(0,0,0)" paint-order="fill stroke markers" d=" M 259.575009946163 424.65278063312996 L 253.56811710050437 435.0570242374347 L 259.5750099461638 435.05702423743423 L 256.57156352333374 429.85490243528227 L 262.57845636899305 429.8549024352819 Z" stroke-opacity="0.6980392156862745" stroke-linecap="round" stroke-linejoin="round" stroke-miterlimit="10" stroke-width="2.5"/><path fill="rgb(0,0,0)" stroke="none" paint-order="stroke fill markers" fill-rule="evenodd" d=" M 283.6025813288059 424.65278063312735 L 280.5991349059753 429.8549024352805 L 286.6060277516361 429.8549024352808 Z" fill-opacity="1"/><path fill="none" stroke="rgb(0,0,0)" paint-order="fill stroke markers" d=" M 283.6025813288059 424.65278063312735 L 280.5991349059753 429.8549024352805 L 286.6060277516361 429.8549024352808 Z" stroke-opacity="0.6980392156862745" stroke-linecap="round" stroke-linejoin="round" stroke-miterlimit="10" stroke-width="2.5"/><path fill="rgb(0,0,0)" stroke="none" paint-order="stroke fill markers" fill-rule="evenodd" d=" M 280.5991349059753 429.8549024352805 L 277.59568848314467 435.05702423743367 L 283.60258132880534 435.057024237434 Z" fill-opacity="1"/><path fill="none" stroke="rgb(0,0,0)" paint-order="fill stroke markers" d=" M 280.5991349059753 429.8549024352805 L 277.59568848314467 435.05702423743367 L 283.60258132880534 435.057024237434 Z" stroke-opacity="0.6980392156862745" stroke-linecap="round" stroke-linejoin="round" stroke-miterlimit="10" stroke-width="2.5"/><path fill="rgb(0,0,0)" stroke="none" paint-order="stroke fill markers" fill-rule="evenodd" d=" M 286.6060277516361 429.8549024352808 L 283.60258132880534 435.057024237434 L 289.60947417446613 435.0570242374343 Z" fill-opacity="1"/><path fill="none" stroke="rgb(0,0,0)" paint-order="fill stroke markers" d=" M 286.6060277516361 429.8549024352808 L 283.60258132880534 435.057024237434 L 289.60947417446613 435.0570242374343 Z" stroke-opacity="0.6980392156862745" stroke-linecap="round" stroke-linejoin="round" stroke-miterlimit="10" stroke-width="2.5"/><path fill="rgb(0,0,0)" stroke="none" paint-order="stroke fill markers" fill-rule="evenodd" d=" M 307.63015271144667 424.65278063312485 L 304.6267062886158 429.854902435279 L 310.63359913427763 429.854902435279 Z" fill-opacity="1"/><path fill="none" stroke="rgb(0,0,0)" paint-order="fill stroke markers" d=" M 307.63015271144667 424.65278063312485 L 304.6267062886158 429.854902435279 L 310.63359913427763 429.854902435279 Z" stroke-opacity="0.6980392156862745" stroke-linecap="round" stroke-linejoin="round" stroke-miterlimit="10" stroke-width="2.5"/><path fill="rgb(0,0,0)" stroke="none" paint-order="stroke fill markers" fill-rule="evenodd" d=" M 304.6267062886158 429.854902435279 L 301.623259865785 435.0570242374331 L 307.63015271144667 435.0570242374331 Z" fill-opacity="1"/><path fill="none" stroke="rgb(0,0,0)" paint-order="fill stroke markers" d=" M 304.6267062886158 429.854902435279 L 301.623259865785 435.0570242374331 L 307.63015271144667 435.0570242374331 Z" stroke-opacity="0.6980392156862745" stroke-linecap="round" stroke-linejoin="round" stroke-miterlimit="10" stroke-width="2.5"/><path fill="rgb(0,0,0)" stroke="none" paint-order="stroke fill markers" fill-rule="evenodd" d=" M 310.63359913427763 429.854902435279 L 307.63015271144667 435.0570242374331 L 313.6370455571085 435.0570242374331 Z" fill-opacity="1"/><path fill="none" stroke="rgb(0,0,0)" paint-order="fill stroke markers" d=" M 310.63359913427763 429.854902435279 L 307.63015271144667 435.0570242374331 L 313.6370455571085 435.0570242374331 Z" stroke-opacity="0.6980392156862745" stroke-linecap="round" stroke-linejoin="round" stroke-miterlimit="10" stroke-width="2.5"/><path fill="rgb(0,0,0)" stroke="none" paint-order="stroke fill markers" fill-rule="evenodd" d=" M 331.65772409409266 424.65278063312485 L 325.65083124843073 435.0570242374332 L 337.66461693975424 435.0570242374334 Z" fill-opacity="1"/><path fill="none" stroke="rgb(0,0,0)" paint-order="fill stroke markers" d=" M 331.65772409409266 424.65278063312485 L 325.65083124843073 435.0570242374332 L 337.66461693975424 435.0570242374334 Z" stroke-opacity="0.6980392156862745" stroke-linecap="round" stroke-linejoin="round" stroke-miterlimit="10" stroke-width="2.5"/><path fill="rgb(0,0,0)" stroke="none" paint-order="stroke fill markers" fill-rule="evenodd" d=" M 355.6852954767341 424.6527806331247 L 349.67840263107206 435.05702423743287 L 361.6921883223957 435.0570242374332 Z" fill-opacity="1"/><path fill="none" stroke="rgb(0,0,0)" paint-order="fill stroke markers" d=" M 355.6852954767341 424.6527806331247 L 349.67840263107206 435.05702423743287 L 361.6921883223957 435.0570242374332 Z" stroke-opacity="0.6980392156862745" stroke-linecap="round" stroke-linejoin="round" stroke-miterlimit="10" stroke-width="2.5"/><path fill="rgb(0,0,0)" stroke="none" paint-order="stroke fill markers" fill-rule="evenodd" d=" M 379.71286685937906 424.65278063312445 L 376.70942043654844 429.8549024352788 L 382.71631328221025 429.8549024352785 Z" fill-opacity="1"/><path fill="none" stroke="rgb(0,0,0)" paint-order="fill stroke markers" d=" M 379.71286685937906 424.65278063312445 L 376.70942043654844 429.8549024352788 L 382.71631328221025 429.8549024352785 Z" stroke-opacity="0.6980392156862745" stroke-linecap="round" stroke-linejoin="round" stroke-miterlimit="10" stroke-width="2.5"/><path fill="rgb(0,0,0)" stroke="none" paint-order="stroke fill markers" fill-rule="evenodd" d=" M 376.70942043654844 429.8549024352788 L 373.7059740137178 435.0570242374331 L 379.71286685937963 435.05702423743287 Z" fill-opacity="1"/><path fill="none" stroke="rgb(0,0,0)" paint-order="fill stroke markers" d=" M 376.70942043654844 429.8549024352788 L 373.7059740137178 435.0570242374331 L 379.71286685937963 435.05702423743287 Z" stroke-opacity="0.6980392156862745" stroke-linecap="round" stroke-linejoin="round" stroke-miterlimit="10" stroke-width="2.5"/><path fill="rgb(0,0,0)" stroke="none" paint-order="stroke fill markers" fill-rule="evenodd" d=" M 382.71631328221025 429.8549024352785 L 379.71286685937963 435.05702423743287 L 385.71975970504144 435.0570242374326 Z" fill-opacity="1"/><path fill="none" stroke="rgb(0,0,0)" paint-order="fill stroke markers" d=" M 382.71631328221025 429.8549024352785 L 379.71286685937963 435.05702423743287 L 385.71975970504144 435.0570242374326 Z" stroke-opacity="0.6980392156862745" stroke-linecap="round" stroke-linejoin="round" stroke-miterlimit="10" stroke-width="2.5"/><path fill="rgb(0,0,0)" stroke="none" paint-order="stroke fill markers" fill-rule="evenodd" d=" M 632.0023663771294 424.6527806331273 L 619.9885806858078 445.46126784174055 L 632.0023663771294 466.2697550503538 L 656.0299377597723 466.2697550503538 Z" fill-opacity="1"/><path fill="none" stroke="rgb(0,0,0)" paint-order="fill stroke markers" d=" M 632.0023663771294 424.6527806331273 L 619.9885806858078 445.46126784174055 L 632.0023663771294 466.2697550503538 L 656.0299377597723 466.2697550503538 Z" stroke-opacity="0.6980392156862745" stroke-linecap="round" stroke-linejoin="round" stroke-miterlimit="10" stroke-width="2.5"/><path fill="rgb(0,0,0)" stroke="none" paint-order="stroke fill markers" fill-rule="evenodd" d=" M 607.9747949944872 424.6527806331299 L 601.9679021488273 435.0570242374354 L 613.9816878401475 435.0570242374352 Z" fill-opacity="1"/><path fill="none" stroke="rgb(0,0,0)" paint-order="fill stroke markers" d=" M 607.9747949944872 424.6527806331299 L 601.9679021488273 435.0570242374354 L 613.9816878401475 435.0570242374352 Z" stroke-opacity="0.6980392156862745" stroke-linecap="round" stroke-linejoin="round" stroke-miterlimit="10" stroke-width="2.5"/><path fill="rgb(0,0,0)" stroke="none" paint-order="stroke fill markers" fill-rule="evenodd" d=" M 601.9679021488273 435.0570242374354 L 595.9610093031677 445.46126784174095 L 607.9747949944876 445.4612678417408 Z" fill-opacity="1"/><path fill="none" stroke="rgb(0,0,0)" paint-order="fill stroke markers" d=" M 601.9679021488273 435.0570242374354 L 595.9610093031677 445.46126784174095 L 607.9747949944876 445.4612678417408 Z" stroke-opacity="0.6980392156862745" stroke-linecap="round" stroke-linejoin="round" stroke-miterlimit="10" stroke-width="2.5"/><path fill="rgb(0,0,0)" stroke="none" paint-order="stroke fill markers" fill-rule="evenodd" d=" M 607.9747949944876 445.4612678417408 L 619.9885806858078 445.46126784174055 L 613.9816878401475 435.0570242374352 Z" fill-opacity="1"/><path fill="none" stroke="rgb(0,0,0)" paint-order="fill stroke markers" d=" M 607.9747949944876 445.4612678417408 L 619.9885806858078 445.46126784174055 L 613.9816878401475 435.0570242374352 Z" stroke-opacity="0.6980392156862745" stroke-linecap="round" stroke-linejoin="round" stroke-miterlimit="10" stroke-width="2.5"/><path fill="rgb(0,0,0)" stroke="none" paint-order="stroke fill markers" fill-rule="evenodd" d=" M 704.0850805250584 466.26975505035375 L 752.1402232903445 466.26975505035364 L 728.1126519077015 424.6527806331271 Z" fill-opacity="1"/><path fill="none" stroke="rgb(0,0,0)" paint-order="fill stroke markers" d=" M 704.0850805250584 466.26975505035375 L 752.1402232903445 466.26975505035364 L 728.1126519077015 424.6527806331271 Z" stroke-opacity="0.6980392156862745" stroke-linecap="round" stroke-linejoin="round" stroke-miterlimit="10" stroke-width="2.5"/><path fill="rgb(0,0,0)" stroke="none" paint-order="stroke fill markers" fill-rule="evenodd" d=" M 644.016152068451 445.46126784174055 L 668.0437234510912 445.46126784174095 L 656.0299377597717 424.65278063312985 Z" fill-opacity="1"/><path fill="none" stroke="rgb(0,0,0)" paint-order="fill stroke markers" d=" M 644.016152068451 445.46126784174055 L 668.0437234510912 445.46126784174095 L 656.0299377597717 424.65278063312985 Z" stroke-opacity="0.6980392156862745" stroke-linecap="round" stroke-linejoin="round" stroke-miterlimit="10" stroke-width="2.5"/><path fill="rgb(0,0,0)" stroke="none" paint-order="stroke fill markers" fill-rule="evenodd" d=" M 692.071294833737 445.46126784174083 L 716.09886621638 445.46126784174044 L 704.0850805250582 424.65278063312746 Z" fill-opacity="1"/><path fill="none" stroke="rgb(0,0,0)" paint-order="fill stroke markers" d=" M 692.071294833737 445.46126784174083 L 716.09886621638 445.46126784174044 L 704.0850805250582 424.65278063312746 Z" stroke-opacity="0.6980392156862745" stroke-linecap="round" stroke-linejoin="round" stroke-miterlimit="10" stroke-width="2.5"/><path fill="rgb(0,0,0)" stroke="none" paint-order="stroke fill markers" fill-rule="evenodd" d=" M 740.1264375990231 445.4612678417404 L 752.1402232903445 445.46126784174055 L 758.1471161360053 435.057024237434 L 752.1402232903447 424.65278063312735 Z" fill-opacity="1"/><path fill="none" stroke="rgb(0,0,0)" paint-order="fill stroke markers" d=" M 740.1264375990231 445.4612678417404 L 752.1402232903445 445.46126784174055 L 758.1471161360053 435.057024237434 L 752.1402232903447 424.65278063312735 Z" stroke-opacity="0.6980392156862745" stroke-linecap="round" stroke-linejoin="round" stroke-miterlimit="10" stroke-width="2.5"/><path fill="rgb(0,0,0)" stroke="none" paint-order="stroke fill markers" fill-rule="evenodd" d=" M 595.9610093031674 424.6527806331268 L 589.9541164575044 435.0570242374338 L 601.9679021488273 435.0570242374354 Z" fill-opacity="1"/><path fill="none" stroke="rgb(0,0,0)" paint-order="fill stroke markers" d=" M 595.9610093031674 424.6527806331268 L 589.9541164575044 435.0570242374338 L 601.9679021488273 435.0570242374354 Z" stroke-opacity="0.6980392156862745" stroke-linecap="round" stroke-linejoin="round" stroke-miterlimit="10" stroke-width="2.5"/><path fill="rgb(0,0,0)" stroke="none" paint-order="stroke fill markers" fill-rule="evenodd" d=" M 619.9885806858072 424.6527806331263 L 613.9816878401475 435.0570242374352 L 625.9954735314702 435.05702423743315 Z" fill-opacity="1"/><path fill="none" stroke="rgb(0,0,0)" paint-order="fill stroke markers" d=" M 619.9885806858072 424.6527806331263 L 613.9816878401475 435.0570242374352 L 625.9954735314702 435.05702423743315 Z" stroke-opacity="0.6980392156862745" stroke-linecap="round" stroke-linejoin="round" stroke-miterlimit="10" stroke-width="2.5"/><path fill="rgb(0,0,0)" stroke="none" paint-order="stroke fill markers" fill-rule="evenodd" d=" M 644.0161520684542 424.6527806331312 L 638.0092592227938 435.0570242374335 L 644.0161520684526 435.05702423743435 L 641.012705645624 429.8549024352824 L 647.0195984912827 429.8549024352832 Z" fill-opacity="1"/><path fill="none" stroke="rgb(0,0,0)" paint-order="fill stroke markers" d=" M 644.0161520684542 424.6527806331312 L 638.0092592227938 435.0570242374335 L 644.0161520684526 435.05702423743435 L 641.012705645624 429.8549024352824 L 647.0195984912827 429.8549024352832 Z" stroke-opacity="0.6980392156862745" stroke-linecap="round" stroke-linejoin="round" stroke-miterlimit="10" stroke-width="2.5"/><path fill="rgb(0,0,0)" stroke="none" paint-order="stroke fill markers" fill-rule="evenodd" d=" M 668.0437234510891 424.65278063313167 L 665.0402770282603 429.8549024352835 L 671.0471698739191 429.85490243528295 Z" fill-opacity="1"/><path fill="none" stroke="rgb(0,0,0)" paint-order="fill stroke markers" d=" M 668.0437234510891 424.65278063313167 L 665.0402770282603 429.8549024352835 L 671.0471698739191 429.85490243528295 Z" stroke-opacity="0.6980392156862745" stroke-linecap="round" stroke-linejoin="round" stroke-miterlimit="10" stroke-width="2.5"/><path fill="rgb(0,0,0)" stroke="none" paint-order="stroke fill markers" fill-rule="evenodd" d=" M 665.0402770282603 429.8549024352835 L 662.0368306054315 435.05702423743537 L 668.0437234510903 435.0570242374348 Z" fill-opacity="1"/><path fill="none" stroke="rgb(0,0,0)" paint-order="fill stroke markers" d=" M 665.0402770282603 429.8549024352835 L 662.0368306054315 435.05702423743537 L 668.0437234510903 435.0570242374348 Z" stroke-opacity="0.6980392156862745" stroke-linecap="round" stroke-linejoin="round" stroke-miterlimit="10" stroke-width="2.5"/><path fill="rgb(0,0,0)" stroke="none" paint-order="stroke fill markers" fill-rule="evenodd" d=" M 671.0471698739191 429.85490243528295 L 668.0437234510903 435.0570242374348 L 674.050616296749 435.0570242374341 Z" fill-opacity="1"/><path fill="none" stroke="rgb(0,0,0)" paint-order="fill stroke markers" d=" M 671.0471698739191 429.85490243528295 L 668.0437234510903 435.0570242374348 L 674.050616296749 435.0570242374341 Z" stroke-opacity="0.6980392156862745" stroke-linecap="round" stroke-linejoin="round" stroke-miterlimit="10" stroke-width="2.5"/><path fill="rgb(0,0,0)" stroke="none" paint-order="stroke fill markers" fill-rule="evenodd" d=" M 692.071294833733 424.65278063312337 L 689.0678484109019 429.85490243527937 L 695.0747412565654 429.85490243527875 Z" fill-opacity="1"/><path fill="none" stroke="rgb(0,0,0)" paint-order="fill stroke markers" d=" M 692.071294833733 424.65278063312337 L 689.0678484109019 429.85490243527937 L 695.0747412565654 429.85490243527875 Z" stroke-opacity="0.6980392156862745" stroke-linecap="round" stroke-linejoin="round" stroke-miterlimit="10" stroke-width="2.5"/><path fill="rgb(0,0,0)" stroke="none" paint-order="stroke fill markers" fill-rule="evenodd" d=" M 689.0678484109019 429.85490243527937 L 686.0644019880706 435.05702423743537 L 692.0712948337341 435.05702423743475 Z" fill-opacity="1"/><path fill="none" stroke="rgb(0,0,0)" paint-order="fill stroke markers" d=" M 689.0678484109019 429.85490243527937 L 686.0644019880706 435.05702423743537 L 692.0712948337341 435.05702423743475 Z" stroke-opacity="0.6980392156862745" stroke-linecap="round" stroke-linejoin="round" stroke-miterlimit="10" stroke-width="2.5"/><path fill="rgb(0,0,0)" stroke="none" paint-order="stroke fill markers" fill-rule="evenodd" d=" M 695.0747412565654 429.85490243527875 L 692.0712948337341 435.05702423743475 L 698.0781876793976 435.0570242374341 Z" fill-opacity="1"/><path fill="none" stroke="rgb(0,0,0)" paint-order="fill stroke markers" d=" M 695.0747412565654 429.85490243527875 L 692.0712948337341 435.05702423743475 L 698.0781876793976 435.0570242374341 Z" stroke-opacity="0.6980392156862745" stroke-linecap="round" stroke-linejoin="round" stroke-miterlimit="10" stroke-width="2.5"/><path fill="rgb(0,0,0)" stroke="none" paint-order="stroke fill markers" fill-rule="evenodd" d=" M 716.0988662163832 424.65278063312303 L 710.0919733707192 435.05702423743395 L 722.105759062046 435.05702423743475 Z" fill-opacity="1"/><path fill="none" stroke="rgb(0,0,0)" paint-order="fill stroke markers" d=" M 716.0988662163832 424.65278063312303 L 710.0919733707192 435.05702423743395 L 722.105759062046 435.05702423743475 Z" stroke-opacity="0.6980392156862745" stroke-linecap="round" stroke-linejoin="round" stroke-miterlimit="10" stroke-width="2.5"/><path fill="rgb(0,0,0)" stroke="none" paint-order="stroke fill markers" fill-rule="evenodd" d=" M 740.1264375990229 424.65278063312735 L 734.1195447533623 435.0570242374341 L 746.1333304446837 435.0570242374339 Z" fill-opacity="1"/><path fill="none" stroke="rgb(0,0,0)" paint-order="fill stroke markers" d=" M 740.1264375990229 424.65278063312735 L 734.1195447533623 435.0570242374341 L 746.1333304446837 435.0570242374339 Z" stroke-opacity="0.6980392156862745" stroke-linecap="round" stroke-linejoin="round" stroke-miterlimit="10" stroke-width="2.5"/><path fill="rgb(0,0,0)" stroke="none" paint-order="stroke fill markers" fill-rule="evenodd" d=" M 764.1540089816665 424.65278063312763 L 761.1505625588361 429.8549024352808 L 767.1574554044967 429.8549024352811 Z" fill-opacity="1"/><path fill="none" stroke="rgb(0,0,0)" paint-order="fill stroke markers" d=" M 764.1540089816665 424.65278063312763 L 761.1505625588361 429.8549024352808 L 767.1574554044967 429.8549024352811 Z" stroke-opacity="0.6980392156862745" stroke-linecap="round" stroke-linejoin="round" stroke-miterlimit="10" stroke-width="2.5"/><path fill="rgb(0,0,0)" stroke="none" paint-order="stroke fill markers" fill-rule="evenodd" d=" M 761.1505625588361 429.8549024352808 L 758.1471161360053 435.057024237434 L 764.154008981666 435.05702423743423 Z" fill-opacity="1"/><path fill="none" stroke="rgb(0,0,0)" paint-order="fill stroke markers" d=" M 761.1505625588361 429.8549024352808 L 758.1471161360053 435.057024237434 L 764.154008981666 435.05702423743423 Z" stroke-opacity="0.6980392156862745" stroke-linecap="round" stroke-linejoin="round" stroke-miterlimit="10" stroke-width="2.5"/><path fill="rgb(0,0,0)" stroke="none" paint-order="stroke fill markers" fill-rule="evenodd" d=" M 767.1574554044967 429.8549024352811 L 764.154008981666 435.05702423743423 L 770.1609018273268 435.0570242374345 Z" fill-opacity="1"/><path fill="none" stroke="rgb(0,0,0)" paint-order="fill stroke markers" d=" M 767.1574554044967 429.8549024352811 L 764.154008981666 435.05702423743423 L 770.1609018273268 435.0570242374345 Z" stroke-opacity="0.6980392156862745" stroke-linecap="round" stroke-linejoin="round" stroke-miterlimit="10" stroke-width="2.5"/><path fill="rgb(0,0,0)" stroke="none" paint-order="stroke fill markers" fill-rule="evenodd" d=" M 1016.4435084994177 424.65278063312735 L 1004.4297228080964 445.46126784174066 L 1016.4435084994177 466.26975505035387 L 1040.4710798820608 466.2697550503538 Z" fill-opacity="1"/><path fill="none" stroke="rgb(0,0,0)" paint-order="fill stroke markers" d=" M 1016.4435084994177 424.65278063312735 L 1004.4297228080964 445.46126784174066 L 1016.4435084994177 466.26975505035387 L 1040.4710798820608 466.2697550503538 Z" stroke-opacity="0.6980392156862745" stroke-linecap="round" stroke-linejoin="round" stroke-miterlimit="10" stroke-width="2.5"/><path fill="rgb(0,0,0)" stroke="none" paint-order="stroke fill markers" fill-rule="evenodd" d=" M 992.4159371167752 424.6527806331271 L 986.4090442711142 435.05702423743355 L 998.4228299624358 435.0570242374339 Z" fill-opacity="1"/><path fill="none" stroke="rgb(0,0,0)" paint-order="fill stroke markers" d=" M 992.4159371167752 424.6527806331271 L 986.4090442711142 435.05702423743355 L 998.4228299624358 435.0570242374339 Z" stroke-opacity="0.6980392156862745" stroke-linecap="round" stroke-linejoin="round" stroke-miterlimit="10" stroke-width="2.5"/><path fill="rgb(0,0,0)" stroke="none" paint-order="stroke fill markers" fill-rule="evenodd" d=" M 986.4090442711142 435.05702423743355 L 980.4021514254532 445.4612678417401 L 992.4159371167748 445.4612678417403 Z" fill-opacity="1"/><path fill="none" stroke="rgb(0,0,0)" paint-order="fill stroke markers" d=" M 986.4090442711142 435.05702423743355 L 980.4021514254532 445.4612678417401 L 992.4159371167748 445.4612678417403 Z" stroke-opacity="0.6980392156862745" stroke-linecap="round" stroke-linejoin="round" stroke-miterlimit="10" stroke-width="2.5"/><path fill="rgb(0,0,0)" stroke="none" paint-order="stroke fill markers" fill-rule="evenodd" d=" M 992.4159371167748 445.4612678417403 L 1004.4297228080964 445.46126784174066 L 998.4228299624358 435.0570242374339 Z" fill-opacity="1"/><path fill="none" stroke="rgb(0,0,0)" paint-order="fill stroke markers" d=" M 992.4159371167748 445.4612678417403 L 1004.4297228080964 445.46126784174066 L 998.4228299624358 435.0570242374339 Z" stroke-opacity="0.6980392156862745" stroke-linecap="round" stroke-linejoin="round" stroke-miterlimit="10" stroke-width="2.5"/><path fill="rgb(0,0,0)" stroke="none" paint-order="stroke fill markers" fill-rule="evenodd" d=" M 1088.526222647347 466.26975505035375 L 1136.581365412633 466.2697550503538 L 1112.5537940299898 424.6527806331273 Z" fill-opacity="1"/><path fill="none" stroke="rgb(0,0,0)" paint-order="fill stroke markers" d=" M 1088.526222647347 466.26975505035375 L 1136.581365412633 466.2697550503538 L 1112.5537940299898 424.6527806331273 Z" stroke-opacity="0.6980392156862745" stroke-linecap="round" stroke-linejoin="round" stroke-miterlimit="10" stroke-width="2.5"/><path fill="rgb(0,0,0)" stroke="none" paint-order="stroke fill markers" fill-rule="evenodd" d=" M 1028.4572941907393 445.46126784174055 L 1052.4848655733822 445.46126784173987 L 1040.4710798820602 424.65278063312695 Z" fill-opacity="1"/><path fill="none" stroke="rgb(0,0,0)" paint-order="fill stroke markers" d=" M 1028.4572941907393 445.46126784174055 L 1052.4848655733822 445.46126784173987 L 1040.4710798820602 424.65278063312695 Z" stroke-opacity="0.6980392156862745" stroke-linecap="round" stroke-linejoin="round" stroke-miterlimit="10" stroke-width="2.5"/><path fill="rgb(0,0,0)" stroke="none" paint-order="stroke fill markers" fill-rule="evenodd" d=" M 1076.5124369560253 445.4612678417395 L 1100.5400083386683 445.46126784174055 L 1088.5262226473478 424.6527806331267 Z" fill-opacity="1"/><path fill="none" stroke="rgb(0,0,0)" paint-order="fill stroke markers" d=" M 1076.5124369560253 445.4612678417395 L 1100.5400083386683 445.46126784174055 L 1088.5262226473478 424.6527806331267 Z" stroke-opacity="0.6980392156862745" stroke-linecap="round" stroke-linejoin="round" stroke-miterlimit="10" stroke-width="2.5"/><path fill="rgb(0,0,0)" stroke="none" paint-order="stroke fill markers" fill-rule="evenodd" d=" M 1124.5675797213114 445.46126784174055 L 1136.581365412633 445.4612678417401 L 1142.5882582582933 435.0570242374332 L 1136.581365412632 424.6527806331269 Z" fill-opacity="1"/><path fill="none" stroke="rgb(0,0,0)" paint-order="fill stroke markers" d=" M 1124.5675797213114 445.46126784174055 L 1136.581365412633 445.4612678417401 L 1142.5882582582933 435.0570242374332 L 1136.581365412632 424.6527806331269 Z" stroke-opacity="0.6980392156862745" stroke-linecap="round" stroke-linejoin="round" stroke-miterlimit="10" stroke-width="2.5"/><path fill="rgb(0,0,0)" stroke="none" paint-order="stroke fill markers" fill-rule="evenodd" d=" M 980.4021514254503 424.65278063311655 L 974.395258579782 435.0570242374313 L 986.4090442711142 435.05702423743355 Z" fill-opacity="1"/><path fill="none" stroke="rgb(0,0,0)" paint-order="fill stroke markers" d=" M 980.4021514254503 424.65278063311655 L 974.395258579782 435.0570242374313 L 986.4090442711142 435.05702423743355 Z" stroke-opacity="0.6980392156862745" stroke-linecap="round" stroke-linejoin="round" stroke-miterlimit="10" stroke-width="2.5"/><path fill="rgb(0,0,0)" stroke="none" paint-order="stroke fill markers" fill-rule="evenodd" d=" M 1004.429722808095 424.65278063312644 L 998.4228299624358 435.0570242374339 L 1010.4366156537574 435.0570242374322 Z" fill-opacity="1"/><path fill="none" stroke="rgb(0,0,0)" paint-order="fill stroke markers" d=" M 1004.429722808095 424.65278063312644 L 998.4228299624358 435.0570242374339 L 1010.4366156537574 435.0570242374322 Z" stroke-opacity="0.6980392156862745" stroke-linecap="round" stroke-linejoin="round" stroke-miterlimit="10" stroke-width="2.5"/><path fill="rgb(0,0,0)" stroke="none" paint-order="stroke fill markers" fill-rule="evenodd" d=" M 1028.4572941907384 424.65278063312746 L 1022.4504013450783 435.0570242374344 L 1028.457294190739 435.0570242374341 L 1025.4538477679082 429.8549024352809 L 1031.460740613569 429.85490243528056 Z" fill-opacity="1"/><path fill="none" stroke="rgb(0,0,0)" paint-order="fill stroke markers" d=" M 1028.4572941907384 424.65278063312746 L 1022.4504013450783 435.0570242374344 L 1028.457294190739 435.0570242374341 L 1025.4538477679082 429.8549024352809 L 1031.460740613569 429.85490243528056 Z" stroke-opacity="0.6980392156862745" stroke-linecap="round" stroke-linejoin="round" stroke-miterlimit="10" stroke-width="2.5"/><path fill="rgb(0,0,0)" stroke="none" paint-order="stroke fill markers" fill-rule="evenodd" d=" M 1052.4848655733765 424.6527806331362 L 1049.4814191505488 429.8549024352848 L 1055.4883119962042 429.85490243528477 Z" fill-opacity="1"/><path fill="none" stroke="rgb(0,0,0)" paint-order="fill stroke markers" d=" M 1052.4848655733765 424.6527806331362 L 1049.4814191505488 429.8549024352848 L 1055.4883119962042 429.85490243528477 Z" stroke-opacity="0.6980392156862745" stroke-linecap="round" stroke-linejoin="round" stroke-miterlimit="10" stroke-width="2.5"/><path fill="rgb(0,0,0)" stroke="none" paint-order="stroke fill markers" fill-rule="evenodd" d=" M 1049.4814191505488 429.8549024352848 L 1046.4779727277212 435.05702423743344 L 1052.4848655733765 435.0570242374334 Z" fill-opacity="1"/><path fill="none" stroke="rgb(0,0,0)" paint-order="fill stroke markers" d=" M 1049.4814191505488 429.8549024352848 L 1046.4779727277212 435.05702423743344 L 1052.4848655733765 435.0570242374334 Z" stroke-opacity="0.6980392156862745" stroke-linecap="round" stroke-linejoin="round" stroke-miterlimit="10" stroke-width="2.5"/><path fill="rgb(0,0,0)" stroke="none" paint-order="stroke fill markers" fill-rule="evenodd" d=" M 1055.4883119962042 429.85490243528477 L 1052.4848655733765 435.0570242374334 L 1058.4917584190318 435.0570242374334 Z" fill-opacity="1"/><path fill="none" stroke="rgb(0,0,0)" paint-order="fill stroke markers" d=" M 1055.4883119962042 429.85490243528477 L 1052.4848655733765 435.0570242374334 L 1058.4917584190318 435.0570242374334 Z" stroke-opacity="0.6980392156862745" stroke-linecap="round" stroke-linejoin="round" stroke-miterlimit="10" stroke-width="2.5"/><path fill="rgb(0,0,0)" stroke="none" paint-order="stroke fill markers" fill-rule="evenodd" d=" M 1076.512436956027 424.65278063312593 L 1073.5089905331959 429.85490243527903 L 1079.5158833788566 429.85490243527954 Z" fill-opacity="1"/><path fill="none" stroke="rgb(0,0,0)" paint-order="fill stroke markers" d=" M 1076.512436956027 424.65278063312593 L 1073.5089905331959 429.85490243527903 L 1079.5158833788566 429.85490243527954 Z" stroke-opacity="0.6980392156862745" stroke-linecap="round" stroke-linejoin="round" stroke-miterlimit="10" stroke-width="2.5"/><path fill="rgb(0,0,0)" stroke="none" paint-order="stroke fill markers" fill-rule="evenodd" d=" M 1073.5089905331959 429.85490243527903 L 1070.505544110365 435.0570242374321 L 1076.5124369560258 435.05702423743264 Z" fill-opacity="1"/><path fill="none" stroke="rgb(0,0,0)" paint-order="fill stroke markers" d=" M 1073.5089905331959 429.85490243527903 L 1070.505544110365 435.0570242374321 L 1076.5124369560258 435.05702423743264 Z" stroke-opacity="0.6980392156862745" stroke-linecap="round" stroke-linejoin="round" stroke-miterlimit="10" stroke-width="2.5"/><path fill="rgb(0,0,0)" stroke="none" paint-order="stroke fill markers" fill-rule="evenodd" d=" M 1079.5158833788566 429.85490243527954 L 1076.5124369560258 435.05702423743264 L 1082.5193298016866 435.0570242374331 Z" fill-opacity="1"/><path fill="none" stroke="rgb(0,0,0)" paint-order="fill stroke markers" d=" M 1079.5158833788566 429.85490243527954 L 1076.5124369560258 435.05702423743264 L 1082.5193298016866 435.0570242374331 Z" stroke-opacity="0.6980392156862745" stroke-linecap="round" stroke-linejoin="round" stroke-miterlimit="10" stroke-width="2.5"/><path fill="rgb(0,0,0)" stroke="none" paint-order="stroke fill markers" fill-rule="evenodd" d=" M 1100.540008338669 424.652780633127 L 1094.5331154930082 435.05702423743367 L 1106.5469011843295 435.05702423743367 Z" fill-opacity="1"/><path fill="none" stroke="rgb(0,0,0)" paint-order="fill stroke markers" d=" M 1100.540008338669 424.652780633127 L 1094.5331154930082 435.05702423743367 L 1106.5469011843295 435.05702423743367 Z" stroke-opacity="0.6980392156862745" stroke-linecap="round" stroke-linejoin="round" stroke-miterlimit="10" stroke-width="2.5"/><path fill="rgb(0,0,0)" stroke="none" paint-order="stroke fill markers" fill-rule="evenodd" d=" M 1124.5675797213125 424.6527806331262 L 1118.5606868756502 435.0570242374321 L 1130.5744725669717 435.0570242374337 Z" fill-opacity="1"/><path fill="none" stroke="rgb(0,0,0)" paint-order="fill stroke markers" d=" M 1124.5675797213125 424.6527806331262 L 1118.5606868756502 435.0570242374321 L 1130.5744725669717 435.0570242374337 Z" stroke-opacity="0.6980392156862745" stroke-linecap="round" stroke-linejoin="round" stroke-miterlimit="10" stroke-width="2.5"/><path fill="rgb(0,0,0)" stroke="none" paint-order="stroke fill markers" fill-rule="evenodd" d=" M 1148.595151103952 424.6527806331253 L 1145.5917046811226 429.8549024352793 L 1151.5985975267834 429.854902435278 Z" fill-opacity="1"/><path fill="none" stroke="rgb(0,0,0)" paint-order="fill stroke markers" d=" M 1148.595151103952 424.6527806331253 L 1145.5917046811226 429.8549024352793 L 1151.5985975267834 429.854902435278 Z" stroke-opacity="0.6980392156862745" stroke-linecap="round" stroke-linejoin="round" stroke-miterlimit="10" stroke-width="2.5"/><path fill="rgb(0,0,0)" stroke="none" paint-order="stroke fill markers" fill-rule="evenodd" d=" M 1145.5917046811226 429.8549024352793 L 1142.5882582582933 435.0570242374332 L 1148.595151103954 435.05702423743196 Z" fill-opacity="1"/><path fill="none" stroke="rgb(0,0,0)" paint-order="fill stroke markers" d=" M 1145.5917046811226 429.8549024352793 L 1142.5882582582933 435.0570242374332 L 1148.595151103954 435.05702423743196 Z" stroke-opacity="0.6980392156862745" stroke-linecap="round" stroke-linejoin="round" stroke-miterlimit="10" stroke-width="2.5"/><path fill="rgb(0,0,0)" stroke="none" paint-order="stroke fill markers" fill-rule="evenodd" d=" M 487.8369380812713 424.65278063312724 L 439.7817953159852 507.8867294675802 L 535.8920808465573 507.88672946758015 Z" fill-opacity="1"/><path fill="none" stroke="rgb(0,0,0)" paint-order="fill stroke markers" d=" M 487.8369380812713 424.65278063312724 L 439.7817953159852 507.8867294675802 L 535.8920808465573 507.88672946758015 Z" stroke-opacity="0.6980392156862745" stroke-linecap="round" stroke-linejoin="round" stroke-miterlimit="10" stroke-width="2.5"/><path fill="rgb(0,0,0)" stroke="none" paint-order="stroke fill markers" fill-rule="evenodd" d=" M 511.8645094639143 466.2697550503537 L 559.9196522292002 466.26975505035375 L 535.8920808465573 424.65278063312724 Z" fill-opacity="1"/><path fill="none" stroke="rgb(0,0,0)" paint-order="fill stroke markers" d=" M 511.8645094639143 466.2697550503537 L 559.9196522292002 466.26975505035375 L 535.8920808465573 424.65278063312724 Z" stroke-opacity="0.6980392156862745" stroke-linecap="round" stroke-linejoin="round" stroke-miterlimit="10" stroke-width="2.5"/><path fill="rgb(0,0,0)" stroke="none" paint-order="stroke fill markers" fill-rule="evenodd" d=" M 553.9127593835397 435.05702423743384 L 565.926545074861 435.05702423743384 L 559.9196522292002 424.65278063312724 Z" fill-opacity="1"/><path fill="none" stroke="rgb(0,0,0)" paint-order="fill stroke markers" d=" M 553.9127593835397 435.05702423743384 L 565.926545074861 435.05702423743384 L 559.9196522292002 424.65278063312724 Z" stroke-opacity="0.6980392156862745" stroke-linecap="round" stroke-linejoin="round" stroke-miterlimit="10" stroke-width="2.5"/><path fill="rgb(0,0,0)" stroke="none" paint-order="stroke fill markers" fill-rule="evenodd" d=" M 553.9127593835397 435.05702423743384 L 547.9058665378789 445.4612678417405 L 559.9196522292002 445.46126784174044 Z" fill-opacity="1"/><path fill="none" stroke="rgb(0,0,0)" paint-order="fill stroke markers" d=" M 553.9127593835397 435.05702423743384 L 547.9058665378789 445.4612678417405 L 559.9196522292002 445.46126784174044 Z" stroke-opacity="0.6980392156862745" stroke-linecap="round" stroke-linejoin="round" stroke-miterlimit="10" stroke-width="2.5"/><path fill="rgb(0,0,0)" stroke="none" paint-order="stroke fill markers" fill-rule="evenodd" d=" M 559.9196522292002 445.46126784174044 L 571.9334379205218 445.46126784174044 L 565.926545074861 435.05702423743384 Z" fill-opacity="1"/><path fill="none" stroke="rgb(0,0,0)" paint-order="fill stroke markers" d=" M 559.9196522292002 445.46126784174044 L 571.9334379205218 445.46126784174044 L 565.926545074861 435.05702423743384 Z" stroke-opacity="0.6980392156862745" stroke-linecap="round" stroke-linejoin="round" stroke-miterlimit="10" stroke-width="2.5"/><path fill="rgb(0,0,0)" stroke="none" paint-order="stroke fill markers" fill-rule="evenodd" d=" M 415.7542239333422 466.26975505035375 L 463.80936669862825 466.2697550503537 L 439.7817953159852 424.65278063312724 Z" fill-opacity="1"/><path fill="none" stroke="rgb(0,0,0)" paint-order="fill stroke markers" d=" M 415.7542239333422 466.26975505035375 L 463.80936669862825 466.2697550503537 L 439.7817953159852 424.65278063312724 Z" stroke-opacity="0.6980392156862745" stroke-linecap="round" stroke-linejoin="round" stroke-miterlimit="10" stroke-width="2.5"/><path fill="rgb(0,0,0)" stroke="none" paint-order="stroke fill markers" fill-rule="evenodd" d=" M 403.7404382420206 445.46126784174027 L 409.7473310876814 435.0570242374337 L 421.761116779003 435.05702423743384 L 415.7542239333422 445.4612678417403 Z" fill-opacity="1"/><path fill="none" stroke="rgb(0,0,0)" paint-order="fill stroke markers" d=" M 403.7404382420206 445.46126784174027 L 409.7473310876814 435.0570242374337 L 421.761116779003 435.05702423743384 L 415.7542239333422 445.4612678417403 Z" stroke-opacity="0.6980392156862745" stroke-linecap="round" stroke-linejoin="round" stroke-miterlimit="10" stroke-width="2.5"/><path fill="rgb(0,0,0)" stroke="none" paint-order="stroke fill markers" fill-rule="evenodd" d=" M 463.8093666986279 424.6527806331271 L 457.80247385296724 435.0570242374338 L 469.8162595442888 435.0570242374336 Z" fill-opacity="1"/><path fill="none" stroke="rgb(0,0,0)" paint-order="fill stroke markers" d=" M 463.8093666986279 424.6527806331271 L 457.80247385296724 435.0570242374338 L 469.8162595442888 435.0570242374336 Z" stroke-opacity="0.6980392156862745" stroke-linecap="round" stroke-linejoin="round" stroke-miterlimit="10" stroke-width="2.5"/><path fill="rgb(0,0,0)" stroke="none" paint-order="stroke fill markers" fill-rule="evenodd" d=" M 457.80247385296724 435.0570242374338 L 451.7955810073067 445.46126784174044 L 463.80936669862825 445.46126784174027 Z" fill-opacity="1"/><path fill="none" stroke="rgb(0,0,0)" paint-order="fill stroke markers" d=" M 457.80247385296724 435.0570242374338 L 451.7955810073067 445.46126784174044 L 463.80936669862825 445.46126784174027 Z" stroke-opacity="0.6980392156862745" stroke-linecap="round" stroke-linejoin="round" stroke-miterlimit="10" stroke-width="2.5"/><path fill="rgb(0,0,0)" stroke="none" paint-order="stroke fill markers" fill-rule="evenodd" d=" M 469.8162595442888 435.0570242374336 L 463.80936669862825 445.46126784174027 L 475.8231523899497 445.4612678417401 Z" fill-opacity="1"/><path fill="none" stroke="rgb(0,0,0)" paint-order="fill stroke markers" d=" M 469.8162595442888 435.0570242374336 L 463.80936669862825 445.46126784174027 L 475.8231523899497 445.4612678417401 Z" stroke-opacity="0.6980392156862745" stroke-linecap="round" stroke-linejoin="round" stroke-miterlimit="10" stroke-width="2.5"/><path fill="rgb(0,0,0)" stroke="none" paint-order="stroke fill markers" fill-rule="evenodd" d=" M 505.85761661825353 435.0570242374338 L 499.85072377259274 445.4612678417403 L 523.8782951552357 445.46126784174044 L 517.8714023095749 435.05702423743384 Z" fill-opacity="1"/><path fill="none" stroke="rgb(0,0,0)" paint-order="fill stroke markers" d=" M 505.85761661825353 435.0570242374338 L 499.85072377259274 445.4612678417403 L 523.8782951552357 445.46126784174044 L 517.8714023095749 435.05702423743384 Z" stroke-opacity="0.6980392156862745" stroke-linecap="round" stroke-linejoin="round" stroke-miterlimit="10" stroke-width="2.5"/><path fill="rgb(0,0,0)" stroke="none" paint-order="stroke fill markers" fill-rule="evenodd" d=" M 400.7369918191866 429.8549024352777 L 397.7335453963545 435.05702423743327 L 409.7473310876814 435.0570242374337 L 406.74388466485 429.85490243527795 Z" fill-opacity="1"/><path fill="none" stroke="rgb(0,0,0)" paint-order="fill stroke markers" d=" M 400.7369918191866 429.8549024352777 L 397.7335453963545 435.05702423743327 L 409.7473310876814 435.0570242374337 L 406.74388466485 429.85490243527795 Z" stroke-opacity="0.6980392156862745" stroke-linecap="round" stroke-linejoin="round" stroke-miterlimit="10" stroke-width="2.5"/><path fill="rgb(0,0,0)" stroke="none" paint-order="stroke fill markers" fill-rule="evenodd" d=" M 424.76456320183325 429.85490243528045 L 421.761116779003 435.05702423743384 L 427.76800962466365 435.0570242374338 L 430.77145604749404 429.85490243528034 Z" fill-opacity="1"/><path fill="none" stroke="rgb(0,0,0)" paint-order="fill stroke markers" d=" M 424.76456320183325 429.85490243528045 L 421.761116779003 435.05702423743384 L 427.76800962466365 435.0570242374338 L 430.77145604749404 429.85490243528034 Z" stroke-opacity="0.6980392156862745" stroke-linecap="round" stroke-linejoin="round" stroke-miterlimit="10" stroke-width="2.5"/><path fill="rgb(0,0,0)" stroke="none" paint-order="stroke fill markers" fill-rule="evenodd" d=" M 445.7886881616458 435.0570242374339 L 451.79558100730657 424.65278063312724 L 454.79902743013696 429.85490243528045 L 448.7921345844762 429.85490243528056 L 451.79558100730657 435.05702423743384 Z" fill-opacity="1"/><path fill="none" stroke="rgb(0,0,0)" paint-order="fill stroke markers" d=" M 445.7886881616458 435.0570242374339 L 451.79558100730657 424.65278063312724 L 454.79902743013696 429.85490243528045 L 448.7921345844762 429.85490243528056 L 451.79558100730657 435.05702423743384 Z" stroke-opacity="0.6980392156862745" stroke-linecap="round" stroke-linejoin="round" stroke-miterlimit="10" stroke-width="2.5"/><path fill="rgb(0,0,0)" stroke="none" paint-order="stroke fill markers" fill-rule="evenodd" d=" M 475.8231523899496 424.6527806331269 L 472.8197059671192 429.8549024352802 L 478.82659881278 429.85490243528017 Z" fill-opacity="1"/><path fill="none" stroke="rgb(0,0,0)" paint-order="fill stroke markers" d=" M 475.8231523899496 424.6527806331269 L 472.8197059671192 429.8549024352802 L 478.82659881278 429.85490243528017 Z" stroke-opacity="0.6980392156862745" stroke-linecap="round" stroke-linejoin="round" stroke-miterlimit="10" stroke-width="2.5"/><path fill="rgb(0,0,0)" stroke="none" paint-order="stroke fill markers" fill-rule="evenodd" d=" M 472.8197059671192 429.8549024352802 L 469.8162595442888 435.0570242374336 L 475.8231523899496 435.05702423743355 Z" fill-opacity="1"/><path fill="none" stroke="rgb(0,0,0)" paint-order="fill stroke markers" d=" M 472.8197059671192 429.8549024352802 L 469.8162595442888 435.0570242374336 L 475.8231523899496 435.05702423743355 Z" stroke-opacity="0.6980392156862745" stroke-linecap="round" stroke-linejoin="round" stroke-miterlimit="10" stroke-width="2.5"/><path fill="rgb(0,0,0)" stroke="none" paint-order="stroke fill markers" fill-rule="evenodd" d=" M 478.82659881278 429.85490243528017 L 475.8231523899496 435.05702423743355 L 481.83004523561027 435.05702423743344 Z" fill-opacity="1"/><path fill="none" stroke="rgb(0,0,0)" paint-order="fill stroke markers" d=" M 478.82659881278 429.85490243528017 L 475.8231523899496 435.05702423743355 L 481.83004523561027 435.05702423743344 Z" stroke-opacity="0.6980392156862745" stroke-linecap="round" stroke-linejoin="round" stroke-miterlimit="10" stroke-width="2.5"/><path fill="rgb(0,0,0)" stroke="none" paint-order="stroke fill markers" fill-rule="evenodd" d=" M 496.84727734976235 429.85490243528045 L 493.84383092693196 435.0570242374338 L 505.85761661825353 435.0570242374338 L 502.85417019542314 429.85490243528045 Z" fill-opacity="1"/><path fill="none" stroke="rgb(0,0,0)" paint-order="fill stroke markers" d=" M 496.84727734976235 429.85490243528045 L 493.84383092693196 435.0570242374338 L 505.85761661825353 435.0570242374338 L 502.85417019542314 429.85490243528045 Z" stroke-opacity="0.6980392156862745" stroke-linecap="round" stroke-linejoin="round" stroke-miterlimit="10" stroke-width="2.5"/><path fill="rgb(0,0,0)" stroke="none" paint-order="stroke fill markers" fill-rule="evenodd" d=" M 523.8782951552357 424.6527806331273 L 517.8714023095749 435.05702423743384 L 529.8851880008965 435.0570242374339 Z" fill-opacity="1"/><path fill="none" stroke="rgb(0,0,0)" paint-order="fill stroke markers" d=" M 523.8782951552357 424.6527806331273 L 517.8714023095749 435.05702423743384 L 529.8851880008965 435.0570242374339 Z" stroke-opacity="0.6980392156862745" stroke-linecap="round" stroke-linejoin="round" stroke-miterlimit="10" stroke-width="2.5"/><path fill="rgb(0,0,0)" stroke="none" paint-order="stroke fill markers" fill-rule="evenodd" d=" M 544.902420115048 429.8549024352811 L 541.8989736922181 435.0570242374346 L 553.9127593835397 435.05702423743384 L 550.9093129607088 429.8549024352807 Z" fill-opacity="1"/><path fill="none" stroke="rgb(0,0,0)" paint-order="fill stroke markers" d=" M 544.902420115048 429.8549024352811 L 541.8989736922181 435.0570242374346 L 553.9127593835397 435.05702423743384 L 550.9093129607088 429.8549024352807 Z" stroke-opacity="0.6980392156862745" stroke-linecap="round" stroke-linejoin="round" stroke-miterlimit="10" stroke-width="2.5"/><path fill="rgb(0,0,0)" stroke="none" paint-order="stroke fill markers" fill-rule="evenodd" d=" M 571.9334379205222 424.65278063312763 L 565.926545074861 435.05702423743384 L 577.9403307661826 435.0570242374346 Z" fill-opacity="1"/><path fill="none" stroke="rgb(0,0,0)" paint-order="fill stroke markers" d=" M 571.9334379205222 424.65278063312763 L 565.926545074861 435.05702423743384 L 577.9403307661826 435.0570242374346 Z" stroke-opacity="0.6980392156862745" stroke-linecap="round" stroke-linejoin="round" stroke-miterlimit="10" stroke-width="2.5"/><path fill="rgb(0,0,0)" stroke="none" paint-order="stroke fill markers" fill-rule="evenodd" d=" M 872.2780802035597 424.65278063312735 L 824.2229374382737 507.8867294675802 L 920.3332229688456 507.8867294675803 Z" fill-opacity="1"/><path fill="none" stroke="rgb(0,0,0)" paint-order="fill stroke markers" d=" M 872.2780802035597 424.65278063312735 L 824.2229374382737 507.8867294675802 L 920.3332229688456 507.8867294675803 Z" stroke-opacity="0.6980392156862745" stroke-linecap="round" stroke-linejoin="round" stroke-miterlimit="10" stroke-width="2.5"/><path fill="rgb(0,0,0)" stroke="none" paint-order="stroke fill markers" fill-rule="evenodd" d=" M 896.3056515862027 466.26975505035387 L 944.3607943514887 466.2697550503542 L 920.3332229688463 424.6527806331275 Z" fill-opacity="1"/><path fill="none" stroke="rgb(0,0,0)" paint-order="fill stroke markers" d=" M 896.3056515862027 466.26975505035387 L 944.3607943514887 466.2697550503542 L 920.3332229688463 424.6527806331275 Z" stroke-opacity="0.6980392156862745" stroke-linecap="round" stroke-linejoin="round" stroke-miterlimit="10" stroke-width="2.5"/><path fill="rgb(0,0,0)" stroke="none" paint-order="stroke fill markers" fill-rule="evenodd" d=" M 938.3539015058288 435.05702423743446 L 950.3676871971504 435.05702423743503 L 944.3607943514901 424.6527806331281 Z" fill-opacity="1"/><path fill="none" stroke="rgb(0,0,0)" paint-order="fill stroke markers" d=" M 938.3539015058288 435.05702423743446 L 950.3676871971504 435.05702423743503 L 944.3607943514901 424.6527806331281 Z" stroke-opacity="0.6980392156862745" stroke-linecap="round" stroke-linejoin="round" stroke-miterlimit="10" stroke-width="2.5"/><path fill="rgb(0,0,0)" stroke="none" paint-order="stroke fill markers" fill-rule="evenodd" d=" M 938.3539015058288 435.05702423743446 L 932.3470086601676 445.4612678417409 L 944.360794351489 445.46126784174135 Z" fill-opacity="1"/><path fill="none" stroke="rgb(0,0,0)" paint-order="fill stroke markers" d=" M 938.3539015058288 435.05702423743446 L 932.3470086601676 445.4612678417409 L 944.360794351489 445.46126784174135 Z" stroke-opacity="0.6980392156862745" stroke-linecap="round" stroke-linejoin="round" stroke-miterlimit="10" stroke-width="2.5"/><path fill="rgb(0,0,0)" stroke="none" paint-order="stroke fill markers" fill-rule="evenodd" d=" M 944.360794351489 445.46126784174135 L 956.3745800428105 445.4612678417419 L 950.3676871971504 435.05702423743503 Z" fill-opacity="1"/><path fill="none" stroke="rgb(0,0,0)" paint-order="fill stroke markers" d=" M 944.360794351489 445.46126784174135 L 956.3745800428105 445.4612678417419 L 950.3676871971504 435.05702423743503 Z" stroke-opacity="0.6980392156862745" stroke-linecap="round" stroke-linejoin="round" stroke-miterlimit="10" stroke-width="2.5"/><path fill="rgb(0,0,0)" stroke="none" paint-order="stroke fill markers" fill-rule="evenodd" d=" M 800.1953660556305 466.2697550503541 L 848.2505088209166 466.2697550503538 L 824.2229374382732 424.6527806331276 Z" fill-opacity="1"/><path fill="none" stroke="rgb(0,0,0)" paint-order="fill stroke markers" d=" M 800.1953660556305 466.2697550503541 L 848.2505088209166 466.2697550503538 L 824.2229374382732 424.6527806331276 Z" stroke-opacity="0.6980392156862745" stroke-linecap="round" stroke-linejoin="round" stroke-miterlimit="10" stroke-width="2.5"/><path fill="rgb(0,0,0)" stroke="none" paint-order="stroke fill markers" fill-rule="evenodd" d=" M 788.1815803643087 445.4612678417409 L 794.1884732099695 435.05702423743423 L 806.2022589012911 435.0570242374342 L 800.1953660556303 445.4612678417409 Z" fill-opacity="1"/><path fill="none" stroke="rgb(0,0,0)" paint-order="fill stroke markers" d=" M 788.1815803643087 445.4612678417409 L 794.1884732099695 435.05702423743423 L 806.2022589012911 435.0570242374342 L 800.1953660556303 445.4612678417409 Z" stroke-opacity="0.6980392156862745" stroke-linecap="round" stroke-linejoin="round" stroke-miterlimit="10" stroke-width="2.5"/><path fill="rgb(0,0,0)" stroke="none" paint-order="stroke fill markers" fill-rule="evenodd" d=" M 848.2505088209161 424.65278063312735 L 842.2436159752556 435.057024237434 L 854.2574016665769 435.05702423743384 Z" fill-opacity="1"/><path fill="none" stroke="rgb(0,0,0)" paint-order="fill stroke markers" d=" M 848.2505088209161 424.65278063312735 L 842.2436159752556 435.057024237434 L 854.2574016665769 435.05702423743384 Z" stroke-opacity="0.6980392156862745" stroke-linecap="round" stroke-linejoin="round" stroke-miterlimit="10" stroke-width="2.5"/><path fill="rgb(0,0,0)" stroke="none" paint-order="stroke fill markers" fill-rule="evenodd" d=" M 842.2436159752556 435.057024237434 L 836.236723129595 445.46126784174066 L 848.2505088209164 445.46126784174055 Z" fill-opacity="1"/><path fill="none" stroke="rgb(0,0,0)" paint-order="fill stroke markers" d=" M 842.2436159752556 435.057024237434 L 836.236723129595 445.46126784174066 L 848.2505088209164 445.46126784174055 Z" stroke-opacity="0.6980392156862745" stroke-linecap="round" stroke-linejoin="round" stroke-miterlimit="10" stroke-width="2.5"/><path fill="rgb(0,0,0)" stroke="none" paint-order="stroke fill markers" fill-rule="evenodd" d=" M 854.2574016665769 435.05702423743384 L 848.2505088209164 445.46126784174055 L 860.2642945122379 445.4612678417403 Z" fill-opacity="1"/><path fill="none" stroke="rgb(0,0,0)" paint-order="fill stroke markers" d=" M 854.2574016665769 435.05702423743384 L 848.2505088209164 445.46126784174055 L 860.2642945122379 445.4612678417403 Z" stroke-opacity="0.6980392156862745" stroke-linecap="round" stroke-linejoin="round" stroke-miterlimit="10" stroke-width="2.5"/><path fill="rgb(0,0,0)" stroke="none" paint-order="stroke fill markers" fill-rule="evenodd" d=" M 890.2987587405419 435.05702423743446 L 884.2918658948815 445.46126784174123 L 908.3194372775245 445.46126784174066 L 902.3125444318634 435.0570242374342 Z" fill-opacity="1"/><path fill="none" stroke="rgb(0,0,0)" paint-order="fill stroke markers" d=" M 890.2987587405419 435.05702423743446 L 884.2918658948815 445.46126784174123 L 908.3194372775245 445.46126784174066 L 902.3125444318634 435.0570242374342 Z" stroke-opacity="0.6980392156862745" stroke-linecap="round" stroke-linejoin="round" stroke-miterlimit="10" stroke-width="2.5"/><path fill="rgb(0,0,0)" stroke="none" paint-order="stroke fill markers" fill-rule="evenodd" d=" M 785.1781339414786 429.8549024352806 L 782.1746875186479 435.0570242374339 L 794.1884732099695 435.05702423743423 L 791.1850267871393 429.8549024352808 Z" fill-opacity="1"/><path fill="none" stroke="rgb(0,0,0)" paint-order="fill stroke markers" d=" M 785.1781339414786 429.8549024352806 L 782.1746875186479 435.0570242374339 L 794.1884732099695 435.05702423743423 L 791.1850267871393 429.8549024352808 Z" stroke-opacity="0.6980392156862745" stroke-linecap="round" stroke-linejoin="round" stroke-miterlimit="10" stroke-width="2.5"/><path fill="rgb(0,0,0)" stroke="none" paint-order="stroke fill markers" fill-rule="evenodd" d=" M 809.2057053241213 429.8549024352808 L 806.2022589012911 435.0570242374342 L 812.2091517469516 435.057024237434 L 815.212598169782 429.8549024352807 Z" fill-opacity="1"/><path fill="none" stroke="rgb(0,0,0)" paint-order="fill stroke markers" d=" M 809.2057053241213 429.8549024352808 L 806.2022589012911 435.0570242374342 L 812.2091517469516 435.057024237434 L 815.212598169782 429.8549024352807 Z" stroke-opacity="0.6980392156862745" stroke-linecap="round" stroke-linejoin="round" stroke-miterlimit="10" stroke-width="2.5"/><path fill="rgb(0,0,0)" stroke="none" paint-order="stroke fill markers" fill-rule="evenodd" d=" M 830.229830283934 435.05702423743514 L 836.2367231295937 424.652780633128 L 839.2401695524247 429.854902435281 L 833.233276706764 429.8549024352816 L 836.2367231295948 435.0570242374346 Z" fill-opacity="1"/><path fill="none" stroke="rgb(0,0,0)" paint-order="fill stroke markers" d=" M 830.229830283934 435.05702423743514 L 836.2367231295937 424.652780633128 L 839.2401695524247 429.854902435281 L 833.233276706764 429.8549024352816 L 836.2367231295948 435.0570242374346 Z" stroke-opacity="0.6980392156862745" stroke-linecap="round" stroke-linejoin="round" stroke-miterlimit="10" stroke-width="2.5"/><path fill="rgb(0,0,0)" stroke="none" paint-order="stroke fill markers" fill-rule="evenodd" d=" M 860.2642945122384 424.6527806331277 L 857.2608480894078 429.8549024352808 L 863.2677409350686 429.85490243528113 Z" fill-opacity="1"/><path fill="none" stroke="rgb(0,0,0)" paint-order="fill stroke markers" d=" M 860.2642945122384 424.6527806331277 L 857.2608480894078 429.8549024352808 L 863.2677409350686 429.85490243528113 Z" stroke-opacity="0.6980392156862745" stroke-linecap="round" stroke-linejoin="round" stroke-miterlimit="10" stroke-width="2.5"/><path fill="rgb(0,0,0)" stroke="none" paint-order="stroke fill markers" fill-rule="evenodd" d=" M 857.2608480894078 429.8549024352808 L 854.2574016665769 435.05702423743384 L 860.2642945122377 435.05702423743423 Z" fill-opacity="1"/><path fill="none" stroke="rgb(0,0,0)" paint-order="fill stroke markers" d=" M 857.2608480894078 429.8549024352808 L 854.2574016665769 435.05702423743384 L 860.2642945122377 435.05702423743423 Z" stroke-opacity="0.6980392156862745" stroke-linecap="round" stroke-linejoin="round" stroke-miterlimit="10" stroke-width="2.5"/><path fill="rgb(0,0,0)" stroke="none" paint-order="stroke fill markers" fill-rule="evenodd" d=" M 863.2677409350686 429.85490243528113 L 860.2642945122377 435.05702423743423 L 866.2711873578985 435.0570242374347 Z" fill-opacity="1"/><path fill="none" stroke="rgb(0,0,0)" paint-order="fill stroke markers" d=" M 863.2677409350686 429.85490243528113 L 860.2642945122377 435.05702423743423 L 866.2711873578985 435.0570242374347 Z" stroke-opacity="0.6980392156862745" stroke-linecap="round" stroke-linejoin="round" stroke-miterlimit="10" stroke-width="2.5"/><path fill="rgb(0,0,0)" stroke="none" paint-order="stroke fill markers" fill-rule="evenodd" d=" M 881.2884194720425 429.8549024352766 L 878.2849730492094 435.0570242374348 L 890.2987587405419 435.05702423743446 L 887.2953123177087 429.8549024352765 Z" fill-opacity="1"/><path fill="none" stroke="rgb(0,0,0)" paint-order="fill stroke markers" d=" M 881.2884194720425 429.8549024352766 L 878.2849730492094 435.0570242374348 L 890.2987587405419 435.05702423743446 L 887.2953123177087 429.8549024352765 Z" stroke-opacity="0.6980392156862745" stroke-linecap="round" stroke-linejoin="round" stroke-miterlimit="10" stroke-width="2.5"/><path fill="rgb(0,0,0)" stroke="none" paint-order="stroke fill markers" fill-rule="evenodd" d=" M 908.3194372775238 424.65278063312746 L 902.3125444318634 435.0570242374342 L 914.326330123185 435.0570242374339 Z" fill-opacity="1"/><path fill="none" stroke="rgb(0,0,0)" paint-order="fill stroke markers" d=" M 908.3194372775238 424.65278063312746 L 902.3125444318634 435.0570242374342 L 914.326330123185 435.0570242374339 Z" stroke-opacity="0.6980392156862745" stroke-linecap="round" stroke-linejoin="round" stroke-miterlimit="10" stroke-width="2.5"/><path fill="rgb(0,0,0)" stroke="none" paint-order="stroke fill markers" fill-rule="evenodd" d=" M 929.3435622373299 429.85490243527624 L 926.3401158144966 435.0570242374341 L 938.3539015058288 435.05702423743446 L 935.350455082996 429.85490243527636 Z" fill-opacity="1"/><path fill="none" stroke="rgb(0,0,0)" paint-order="fill stroke markers" d=" M 929.3435622373299 429.85490243527624 L 926.3401158144966 435.0570242374341 L 938.3539015058288 435.05702423743446 L 935.350455082996 429.85490243527636 Z" stroke-opacity="0.6980392156862745" stroke-linecap="round" stroke-linejoin="round" stroke-miterlimit="10" stroke-width="2.5"/><path fill="rgb(0,0,0)" stroke="none" paint-order="stroke fill markers" fill-rule="evenodd" d=" M 956.3745800428062 424.6527806331382 L 950.3676871971504 435.05702423743503 L 962.3814728884608 435.0570242374357 Z" fill-opacity="1"/><path fill="none" stroke="rgb(0,0,0)" paint-order="fill stroke markers" d=" M 956.3745800428062 424.6527806331382 L 950.3676871971504 435.05702423743503 L 962.3814728884608 435.0570242374357 Z" stroke-opacity="0.6980392156862745" stroke-linecap="round" stroke-linejoin="round" stroke-miterlimit="10" stroke-width="2.5"/><path fill="rgb(0,0,0)" stroke="none" paint-order="stroke fill markers" fill-rule="evenodd" d=" M 247.56122425484108 507.88672946758015 L 343.6715097854131 507.8867294675802 L 295.61636702012714 424.65278063312724 Z" fill-opacity="1"/><path fill="none" stroke="rgb(0,0,0)" paint-order="fill stroke markers" d=" M 247.56122425484108 507.88672946758015 L 343.6715097854131 507.8867294675802 L 295.61636702012714 424.65278063312724 Z" stroke-opacity="0.6980392156862745" stroke-linecap="round" stroke-linejoin="round" stroke-miterlimit="10" stroke-width="2.5"/><path fill="rgb(0,0,0)" stroke="none" paint-order="stroke fill markers" fill-rule="evenodd" d=" M 632.0023663771294 507.8867294675803 L 728.1126519077015 507.8867294675802 L 680.0575091424155 424.6527806331273 Z" fill-opacity="1"/><path fill="none" stroke="rgb(0,0,0)" paint-order="fill stroke markers" d=" M 632.0023663771294 507.8867294675803 L 728.1126519077015 507.8867294675802 L 680.0575091424155 424.6527806331273 Z" stroke-opacity="0.6980392156862745" stroke-linecap="round" stroke-linejoin="round" stroke-miterlimit="10" stroke-width="2.5"/><path fill="rgb(0,0,0)" stroke="none" paint-order="stroke fill markers" fill-rule="evenodd" d=" M 1016.4435084994177 507.8867294675803 L 1112.5537940299898 507.8867294675802 L 1064.4986512647038 424.6527806331273 Z" fill-opacity="1"/><path fill="none" stroke="rgb(0,0,0)" paint-order="fill stroke markers" d=" M 1016.4435084994177 507.8867294675803 L 1112.5537940299898 507.8867294675802 L 1064.4986512647038 424.6527806331273 Z" stroke-opacity="0.6980392156862745" stroke-linecap="round" stroke-linejoin="round" stroke-miterlimit="10" stroke-width="2.5"/></g></g></svg>